# xmcd
#
# Track frame offsets:
#	150
#	14047
#	28099
#	42497
#	56168
#	68861
#	83538
#	93927
#	113232
#	125313
#	139511
#	154536
#	168972
#	182301
#	195230
#	210008
#	222687
#	236650
#	249158
#	263725
#	275359
#	287028
#	300128
#	313392
#	327509
#
# Disc length: 4532
#
# Revision: 1
# Processed by: cddbd v1.5.1PL0 Copyright (c) Steve Scherf et al.
# Submitted via: EasyCDDAExtractor 7.5.0.1
# Normalized: r0:DSETVAR1
#
DISCID=5611b219
DTITLE=Various Artist - Midnight At The Barrelhouse (Rockin' California R&B 1945-47) Disc A
DYEAR=2003
DGENRE=R&B
TTITLE0=Jimmy Rushing - My Baby's Business
TTITLE1=Bill Doggett - Preston Love's Mansion
TTITLE2=Jimmy Rushing - Jimmy's Round The Clock Blues
TTITLE3=Bill Doggett - Harlem Nocturne
TTITLE4=Johnny Otis - Omaha Flash
TTITLE5=Ivie Anderson - He Was Tall, Dark And Handsome
TTITLE6=Joe Turner - S.K. Blues
TTITLE7=Ivie Anderson - Jam Session Blues
TTITLE8=Johnny Otis - Omaha Flash
TTITLE9=Johnny Otis - Jeff-Hi Stomp
TTITLE10=Johnny Otis - Miss Mitchell
TTITLE11=Johnny Otis - Ultra-Violet
TTITLE12=Johnny Otis - Sgt. Barksdale, Pt. I
TTITLE13=Johnny Otis - Sgt. Barksdale, Pt. II
TTITLE14=George Washington - Love's Nocturne
TTITLE15=Johnny Otis - Good Boogie Googie
TTITLE16=Johnny Otis - Midnight In The Barrelhouse
TTITLE17=Johnny Otis - Barrelhouse Stomp
TTITLE18=Cathy Cooper - Alimony Boogie
TTITLE19=Johnny Otis - Hog Jaws
TTITLE20=The Four Bluebirds - My Baby Done Told Me
TTITLE21=Darby Hicks - Court Room Blues
TTITLE22=Johnny Otis - The Jelly Roll
TTITLE23=Cathy Cooper - Pay Day Blues
TTITLE24=Cathy Cooper - Happy New Year Baby
EXTD=
EXTT0=
EXTT1=
EXTT2=
EXTT3=
EXTT4=
EXTT5=
EXTT6=
EXTT7=
EXTT8=
EXTT9=
EXTT10=
EXTT11=
EXTT12=
EXTT13=
EXTT14=
EXTT15=
EXTT16=
EXTT17=
EXTT18=
EXTT19=
EXTT20=
EXTT21=
EXTT22=
EXTT23=
EXTT24=
PLAYORDER=
